<svg width="25" height="24" viewBox="0 0 25 24" fill="none" xmlns="http://www.w3.org/2000/svg">
<g clip-path="url(#clip0)">
<path d="M15.5 12C17.71 12 19.5 10.21 19.5 8C19.5 5.79 17.71 4 15.5 4C13.29 4 11.5 5.79 11.5 8C11.5 10.21 13.29 12 15.5 12ZM15.5 6C16.6 6 17.5 6.9 17.5 8C17.5 9.1 16.6 10 15.5 10C14.4 10 13.5 9.1 13.5 8C13.5 6.9 14.4 6 15.5 6ZM15.5 14C12.83 14 7.5 15.34 7.5 18V20H23.5V18C23.5 15.34 18.17 14 15.5 14ZM9.5 18C9.72 17.28 12.81 16 15.5 16C18.2 16 21.3 17.29 21.5 18H9.5ZM6.5 15V12H9.5V10H6.5V7H4.5V10H1.5V12H4.5V15H6.5Z" fill="#034078"/>
</g>
<defs>
<clipPath id="clip0">
<rect width="24" height="24" fill="white" transform="translate(0.5)"/>
</clipPath>
</defs>
</svg>
