<svg width="372" height="98" viewBox="0 0 372 98" fill="none" xmlns="http://www.w3.org/2000/svg">
<path d="M22.9688 77H16.9922V30.9102H0.714844V25.6016H39.2461V30.9102H22.9688V77ZM62.4141 77.7031C56.7188 77.7031 52.2188 75.9688 48.9141 72.5C45.6328 69.0312 43.9922 64.2148 43.9922 58.0508C43.9922 51.8398 45.5156 46.9062 48.5625 43.25C51.6328 39.5938 55.7461 37.7656 60.9023 37.7656C65.7305 37.7656 69.5508 39.3594 72.3633 42.5469C75.1758 45.7109 76.582 49.8945 76.582 55.0977V58.7891H50.0391C50.1562 63.3125 51.293 66.7461 53.4492 69.0898C55.6289 71.4336 58.6875 72.6055 62.625 72.6055C66.7734 72.6055 70.875 71.7383 74.9297 70.0039V75.207C72.8672 76.0977 70.9102 76.7305 69.0586 77.1055C67.2305 77.5039 65.0156 77.7031 62.4141 77.7031ZM60.832 42.6523C57.7383 42.6523 55.2656 43.6602 53.4141 45.6758C51.5859 47.6914 50.5078 50.4805 50.1797 54.043H70.3242C70.3242 50.3633 69.5039 47.5508 67.8633 45.6055C66.2227 43.6367 63.8789 42.6523 60.832 42.6523ZM101.965 77.7031C96.3867 77.7031 92.0625 75.9922 88.9922 72.5703C85.9453 69.125 84.4219 64.2617 84.4219 57.9805C84.4219 51.5352 85.9688 46.5547 89.0625 43.0391C92.1797 39.5234 96.6094 37.7656 102.352 37.7656C104.203 37.7656 106.055 37.9648 107.906 38.3633C109.758 38.7617 111.211 39.2305 112.266 39.7695L110.473 44.7266C109.184 44.2109 107.777 43.7891 106.254 43.4609C104.73 43.1094 103.383 42.9336 102.211 42.9336C94.3828 42.9336 90.4688 47.9258 90.4688 57.9102C90.4688 62.6445 91.418 66.2773 93.3164 68.8086C95.2383 71.3398 98.0742 72.6055 101.824 72.6055C105.035 72.6055 108.328 71.9141 111.703 70.5312V75.6992C109.125 77.0352 105.879 77.7031 101.965 77.7031ZM147.246 77V52.0742C147.246 48.9336 146.531 46.5898 145.102 45.043C143.672 43.4961 141.434 42.7227 138.387 42.7227C134.332 42.7227 131.367 43.8242 129.492 46.0273C127.641 48.2305 126.715 51.8398 126.715 56.8555V77H120.879V22.2969H126.715V38.8555C126.715 40.8477 126.621 42.5 126.434 43.8125H126.785C127.934 41.9609 129.562 40.5078 131.672 39.4531C133.805 38.375 136.23 37.8359 138.949 37.8359C143.66 37.8359 147.188 38.9609 149.531 41.2109C151.898 43.4375 153.082 46.9883 153.082 51.8633V77H147.246Z" fill="#001F54"/>
<path d="M201 33V27H189V33H201ZM171 39V72H219V39H171ZM219 33C222.33 33 225 35.67 225 39V72C225 75.33 222.33 78 219 78H171C167.67 78 165 75.33 165 72L165.03 39C165.03 35.67 167.67 33 171 33H183V27C183 23.67 185.67 21 189 21H201C204.33 21 207 23.67 207 27V33H219Z" fill="#001F54"/>
<path d="M254.32 77H248.344V30.9102H232.066V25.6016H270.598V30.9102H254.32V77ZM293.766 77.7031C288.07 77.7031 283.57 75.9688 280.266 72.5C276.984 69.0312 275.344 64.2148 275.344 58.0508C275.344 51.8398 276.867 46.9062 279.914 43.25C282.984 39.5938 287.098 37.7656 292.254 37.7656C297.082 37.7656 300.902 39.3594 303.715 42.5469C306.527 45.7109 307.934 49.8945 307.934 55.0977V58.7891H281.391C281.508 63.3125 282.645 66.7461 284.801 69.0898C286.98 71.4336 290.039 72.6055 293.977 72.6055C298.125 72.6055 302.227 71.7383 306.281 70.0039V75.207C304.219 76.0977 302.262 76.7305 300.41 77.1055C298.582 77.5039 296.367 77.7031 293.766 77.7031ZM292.184 42.6523C289.09 42.6523 286.617 43.6602 284.766 45.6758C282.938 47.6914 281.859 50.4805 281.531 54.043H301.676C301.676 50.3633 300.855 47.5508 299.215 45.6055C297.574 43.6367 295.23 42.6523 292.184 42.6523ZM342.773 66.4883C342.773 70.0742 341.438 72.8398 338.766 74.7852C336.094 76.7305 332.344 77.7031 327.516 77.7031C322.406 77.7031 318.422 76.8945 315.562 75.2773V69.8633C317.414 70.8008 319.395 71.5391 321.504 72.0781C323.637 72.6172 325.688 72.8867 327.656 72.8867C330.703 72.8867 333.047 72.4062 334.688 71.4453C336.328 70.4609 337.148 68.9727 337.148 66.9805C337.148 65.4805 336.492 64.2031 335.18 63.1484C333.891 62.0703 331.359 60.8047 327.586 59.3516C324 58.0156 321.445 56.8555 319.922 55.8711C318.422 54.8633 317.297 53.7266 316.547 52.4609C315.82 51.1953 315.457 49.6836 315.457 47.9258C315.457 44.7852 316.734 42.3125 319.289 40.5078C321.844 38.6797 325.348 37.7656 329.801 37.7656C333.949 37.7656 338.004 38.6094 341.965 40.2969L339.891 45.043C336.023 43.4492 332.52 42.6523 329.379 42.6523C326.613 42.6523 324.527 43.0859 323.121 43.9531C321.715 44.8203 321.012 46.0156 321.012 47.5391C321.012 48.5703 321.27 49.4492 321.785 50.1758C322.324 50.9023 323.18 51.5938 324.352 52.25C325.523 52.9062 327.773 53.8555 331.102 55.0977C335.672 56.7617 338.754 58.4375 340.348 60.125C341.965 61.8125 342.773 63.9336 342.773 66.4883ZM364.746 72.8867C365.777 72.8867 366.773 72.8164 367.734 72.6758C368.695 72.5117 369.457 72.3477 370.02 72.1836V76.6484C369.387 76.9531 368.449 77.1992 367.207 77.3867C365.988 77.5977 364.887 77.7031 363.902 77.7031C356.449 77.7031 352.723 73.7773 352.723 65.9258V43.0039H347.203V40.1914L352.723 37.7656L355.184 29.5391H358.559V38.4688H369.738V43.0039H358.559V65.6797C358.559 68 359.109 69.7812 360.211 71.0234C361.312 72.2656 362.824 72.8867 364.746 72.8867Z" fill="#001F54"/>
</svg>
