<?xml version="1.0" encoding="UTF-8" standalone="no"?>
<!-- Generator: Adobe Illustrator 19.0.0, SVG Export Plug-In . SVG Version: 6.00 Build 0)  -->

<svg
   xmlns:dc="http://purl.org/dc/elements/1.1/"
   xmlns:cc="http://creativecommons.org/ns#"
   xmlns:rdf="http://www.w3.org/1999/02/22-rdf-syntax-ns#"
   xmlns:svg="http://www.w3.org/2000/svg"
   xmlns="http://www.w3.org/2000/svg"
   xmlns:sodipodi="http://sodipodi.sourceforge.net/DTD/sodipodi-0.dtd"
   xmlns:inkscape="http://www.inkscape.org/namespaces/inkscape"
   version="1.1"
   id="Layer_1"
   x="0px"
   y="0px"
   viewBox="0 0 700 700"
   xml:space="preserve"
   sodipodi:docname="tnt-energy-drink-logo.svg"
   width="700"
   height="700"
   inkscape:version="0.92.4 (5da689c313, 2019-01-14)"
   inkscape:export-filename="G:\Users\suitedoalex\sites\tnt-energy-drink-logo-0.png"
   inkscape:export-xdpi="561.73712"
   inkscape:export-ydpi="561.73712"><metadata
   id="metadata31"><rdf:RDF><cc:Work
       rdf:about=""><dc:format>image/svg+xml</dc:format><dc:type
         rdf:resource="http://purl.org/dc/dcmitype/StillImage" /><dc:title></dc:title></cc:Work></rdf:RDF></metadata><defs
   id="defs29" /><sodipodi:namedview
   pagecolor="#ffffff"
   bordercolor="#666666"
   borderopacity="1"
   objecttolerance="10"
   gridtolerance="10"
   guidetolerance="10"
   inkscape:pageopacity="0"
   inkscape:pageshadow="2"
   inkscape:window-width="1600"
   inkscape:window-height="837"
   id="namedview27"
   showgrid="false"
   inkscape:zoom="0.42140707"
   inkscape:cx="382.98965"
   inkscape:cy="219.27728"
   inkscape:window-x="-8"
   inkscape:window-y="-8"
   inkscape:window-maximized="1"
   inkscape:current-layer="XMLID_26_" />
<style
   type="text/css"
   id="style2">
	.st0{fill:#C92237;}
	.st1{fill:#D85A59;}
	.st2{fill:#E4958C;}
	.st3{fill:#FDFEFE;}
	.st4{fill:#FDFEFF;}
	.st5{fill:#FDFDFD;}
	.st6{fill:#FDFDFE;}
	.st7{fill:#FDFCFB;}
	.st8{fill:#CB2237;}
	.st9{fill:#CB2137;}
</style>
<g
   id="XMLID_1_"
   transform="translate(0,-92)">
	<g
   id="XMLID_26_">
		<path
   id="XMLID_46_"
   class="st0"
   d="m 0.44831181,850.13368 c 237.02780819,0 474.01767819,0 711.04548819,0 0.34148,0.64503 0.18971,1.36594 0.18971,2.0489 0,209.32972 0,418.69722 0,628.02692 0,0.6829 0.11383,1.4039 -0.11384,2.0868 -0.7209,0.3416 -1.47975,0.1519 -2.2386,0.1519 -235.54806,0 -471.0961,0 -706.6061985,0 -2.73187804,0 -2.4283396,0.3035 -2.4283396,-2.4284 0,-209.2158 0,-418.4696 0,-627.68544 -0.0379369,-0.75886 -0.18970618,-1.47977 0.15177991,-2.20068 z"
   inkscape:connector-curvature="0"
   style="fill:#c92237;stroke-width:0.37942663"
   inkscape:export-filename="G:\Users\suitedoalex\sites\tnt-energy-drink-logo-4.png"
   inkscape:export-xdpi="53.93354"
   inkscape:export-ydpi="53.93354" />
		<path
   id="XMLID_45_"
   class="st1"
   d="m 0.44831181,850.13368 c 0,209.51932 0,419.00082 0,628.52012 0,0.4554 0.0758739,0.9107 0,1.3281 -0.30354913,1.7833 0.37942305,2.3144 2.23861209,2.3144 235.6618761,-0.037 471.3616961,-0.037 707.0615161,-0.037 0.56913,0 1.13828,-0.038 1.70742,-0.038 0.22765,0.1139 0.22765,0.2657 0.038,0.4175 -236.57251,0 -473.14501,0 -709.7175045,0.038 -1.40387069,0 -1.74535679,-0.3036 -1.74535679,-1.7454 0.03793697,-209.7091 0.03793697,-419.3803 0.07587393,-629.08936 0,-0.56914 -0.45531835,-1.29004 0.34148609,-1.70742 z"
   inkscape:connector-curvature="0"
   style="fill:#d85a59;stroke-width:0.37942663"
   inkscape:export-filename="G:\Users\suitedoalex\sites\tnt-energy-drink-logo-4.png"
   inkscape:export-xdpi="53.93354"
   inkscape:export-ydpi="53.93354" />
		<path
   id="XMLID_44_"
   class="st2"
   d="m 711.4938,1482.6379 c 0,-0.1518 -0.038,-0.2657 -0.038,-0.4174 0,-0.8347 0.038,-1.6315 0.038,-2.4662 0,-209.8609 0,-419.7597 0,-629.62062 0.11382,0.0759 0.37943,-0.18971 0.37943,0.18972 0,0.49325 0,1.02444 0,1.5177 0,209.7091 0,419.3803 -0.038,629.0893 0,0.5692 0.45531,1.2901 -0.34148,1.7075 z"
   inkscape:connector-curvature="0"
   style="fill:#e4958c;stroke-width:0.37942663"
   inkscape:export-filename="G:\Users\suitedoalex\sites\tnt-energy-drink-logo-4.png"
   inkscape:export-xdpi="53.93354"
   inkscape:export-ydpi="53.93354" />
		<path
   id="XMLID_43_"
   class="st3"
   d="m 327.51405,1106.0569 v 2.6561 c 0,80.8179 0,161.6356 0.038,242.4535 0,1.8972 0.035,2.3525 0.035,2.3525 -12.52108,-0.1139 -27.42965,-0.076 -39.95073,0 -1.63153,0 -2.23863,-0.015 -2.23863,-0.015 0.038,-103.3177 0.038,-210.8098 0,-314.1276 0,0 0.53121,-0.024 2.12479,0.015 12.7108,0.076 27.3349,0.076 40.0457,0 0,0 0.3253,0.4553 1.16003,1.5937 18.06071,24.7385 36.15937,49.4392 54.29596,74.1399 0.26559,0.3414 0.53119,0.6829 0.91062,1.1383 0.49325,-0.7969 0.30355,-1.5557 0.30355,-2.2387 v -74.5382 c 0,0 -0.30355,-0.019 2.35244,-0.019 12.52108,0 27.27048,0.037 39.79156,-0.038 0,0 -0.10356,0.5312 -0.10356,2.2006 -0.038,103.2799 -0.038,206.5219 -10e-6,309.8019 0,1.7833 -0.0482,2.1628 -0.0482,2.1628 -12.59697,-0.076 -27.30846,-0.076 -39.90543,0 -1.82124,0 -2.12479,-0.03 -2.12479,-0.03 0.038,-56.1552 0.038,-114.519 0.0759,-170.6742 0,-1.973 -0.5312,-3.4527 -1.70742,-5.0084 -18.1366,-23.6382 -36.23524,-47.3524 -54.3339,-71.0286 -0.15176,-0.2277 -0.30354,-0.3416 -0.72091,-0.7969 z"
   inkscape:connector-curvature="0"
   style="fill:#fdfefe;stroke-width:0.37942663"
   sodipodi:nodetypes="csccccccccccscscccccccccc"
   inkscape:export-filename="G:\Users\suitedoalex\sites\tnt-energy-drink-logo-4.png"
   inkscape:export-xdpi="53.93354"
   inkscape:export-ydpi="53.93354" />
		<path
   id="XMLID_42_"
   class="st4"
   d="m 482.3201,1214.2315 c 0,-45.6072 0,-93.5397 0.038,-139.1469 0,0 -0.60708,-0.026 -2.46627,-0.026 -12.59697,0.076 -25.15599,0.038 -37.75294,0.076 -1.36595,0 -1.82126,-0.029 -1.82126,-0.029 0.0759,-10.7377 0.0759,-23.2298 0,-33.9675 0,-1.4039 -0.0174,-1.7833 -0.0174,-1.7833 45.7968,0.037 95.0926,0.066 140.8894,0.028 0,0 0.009,0.1617 -0.52204,1.6035 -4.17369,10.9275 -8.30943,21.8929 -12.36931,32.8583 -0.45531,1.1763 -0.52099,1.2522 -0.52099,1.2522 -13.20405,-0.038 -30.21637,0.038 -43.42042,-0.038 0,0 0.005,0.4173 0.005,2.1248 0.0379,91.2521 0.0379,182.4662 0.0379,273.7183 0,2.7698 0.005,2.5042 0.005,2.5042 -12.40725,0 -27.32295,-0.038 -39.73019,0.076 -2.08685,0 -2.3904,-0.057 -2.3904,-0.057 0.038,-45.5691 0.038,-93.5861 0.038,-139.1932 z"
   inkscape:connector-curvature="0"
   style="fill:#fdfeff;stroke-width:0.37942663"
   sodipodi:nodetypes="cccccccccccccssccsc"
   inkscape:export-filename="G:\Users\suitedoalex\sites\tnt-energy-drink-logo-4.png"
   inkscape:export-xdpi="53.93354"
   inkscape:export-ydpi="53.93354" />
		<path
   id="XMLID_41_"
   class="st4"
   d="m 130.59163,1039.3917 h 2.20068 c 45.45531,0 93.17688,0 138.6322,-0.037 0,0 0.0107,0.5312 -0.0277,2.2766 -0.0758,10.548 -0.0758,21.134 0,31.6821 0,1.5177 -0.0188,1.8212 -0.0188,1.8212 -12.59697,-0.076 -26.99634,0 -39.59331,-0.076 -1.89713,0 -2.35244,0.084 -2.35244,0.084 0.038,80.9317 0.038,164.1695 0.038,245.1011 0,10.3205 -0.0267,22.9242 0.0379,33.2447 0,0 -0.34149,0.031 -2.23862,0.031 -12.52108,-0.076 -25.04216,-0.076 -37.56324,0 -1.7833,0 -2.27655,-0.1006 -2.27655,-0.1006 0.0379,-91.1761 0.0379,-187.0355 0.0379,-278.2118 0,0 0,-0.036 -2.61805,-0.036 -13.01433,0 -27.86737,-0.038 -40.88169,0.037 0,0 -0.0964,-0.3793 -0.58964,-1.6695 -3.98398,-10.7377 -8.04384,-21.4376 -12.06577,-32.1753 -0.26558,-0.607 -0.45531,-1.2142 -0.7209,-1.9731 z"
   inkscape:connector-curvature="0"
   style="fill:#fdfeff;stroke-width:0.37942663"
   sodipodi:nodetypes="csccccccsscccssccccc"
   inkscape:export-filename="G:\Users\suitedoalex\sites\tnt-energy-drink-logo-4.png"
   inkscape:export-xdpi="53.93354"
   inkscape:export-ydpi="53.93354" />
		<path
   id="XMLID_40_"
   class="st5"
   d="m 295.26279,988.85201 c 2.46627,1.74542 3.60456,4.47728 2.80775,7.39883 -0.37942,1.4798 -1.70742,0.45531 -2.5801,0.6451 -0.72091,0.1897 -1.2521,-0.0384 -1.36593,-1.02449 -0.60709,-5.38789 -0.68297,-5.38789 -6.10877,-5.38789 -1.44182,0 -2.92158,0.0375 -4.3634,0 -0.79679,-0.0375 -1.13828,0.22765 -1.10034,1.06245 0.0379,1.0244 0,2.01093 0,3.03542 0,2.20064 -1.17622,3.03534 -3.26308,2.35238 -0.68295,-0.22766 -0.56913,-0.75879 -0.56913,-1.2141 0,-5.0085 0,-9.97896 -0.038,-14.98738 0,-1.02447 0.34149,-1.29005 1.328,-1.29005 4.05986,0.0758 8.08178,0 12.14164,0.11382 2.23862,0.0759 4.55312,0.34149 5.57757,2.76981 0.94857,2.08685 -0.0759,4.59108 -2.46627,6.5261 z"
   inkscape:connector-curvature="0"
   style="fill:#fdfdfd;stroke-width:0.37942663"
   inkscape:export-filename="G:\Users\suitedoalex\sites\tnt-energy-drink-logo-4.png"
   inkscape:export-xdpi="53.93354"
   inkscape:export-ydpi="53.93354" />
		<path
   id="XMLID_39_"
   class="st5"
   d="m 328.46263,994.46756 c -3.7184,3.30104 -7.93003,3.18717 -12.17961,2.08685 -4.0978,-1.06236 -5.99494,-4.24962 -5.91905,-8.99241 0.0758,-4.05985 2.35244,-6.94351 6.29848,-7.89207 3.41484,-0.7968 6.90557,-0.72091 10.28246,0.2656 1.82125,0.5312 3.33895,1.47976 4.21164,3.26306 0.37942,0.7968 0.45531,1.40388 -0.7968,1.36595 -1.55565,-0.0759 -2.92159,0 -4.28752,-1.25212 -2.01096,-1.82125 -7.36087,-1.66947 -9.48566,0 -1.97302,1.55565 -2.54216,3.6425 -2.08686,6.07082 0.53121,2.88369 2.42834,4.40136 5.12226,4.81871 2.54216,0.41735 5.08432,0.34153 7.0194,-1.78328 0.49326,-0.53123 1.06239,-1.29002 0.75886,-2.0489 -0.30355,-0.79683 -1.21417,-0.30357 -1.8592,-0.37939 -0.75885,-0.0759 -1.51771,-0.0375 -2.27655,-0.0375 -0.64503,0 -0.91063,-0.30357 -0.91063,-0.91062 0,-0.68296 0.22765,-1.06245 0.98652,-1.02449 2.54215,0.0384 5.04637,0.0384 7.58852,0 0.91063,0 0.98651,0.53122 0.98651,1.25215 0,2.08685 0,4.1737 0,6.26055 0,0.68296 0.15177,1.47971 -0.98651,1.40389 -0.87268,-0.0759 -1.97302,0.37939 -2.12479,-1.10041 -0.038,-0.41735 -0.18971,-0.83471 -0.34147,-1.36593 z"
   inkscape:connector-curvature="0"
   style="fill:#fdfdfd;stroke-width:0.37942663"
   inkscape:export-filename="G:\Users\suitedoalex\sites\tnt-energy-drink-logo-4.png"
   inkscape:export-xdpi="53.93354"
   inkscape:export-ydpi="53.93354" />
		<path
   id="XMLID_38_"
   class="st3"
   d="m 439.59668,988.85201 c 2.5801,1.6695 3.87015,4.81881 2.88363,7.47475 -0.49324,1.36593 -1.89712,0.34153 -2.84569,0.60705 -0.72092,0.18978 -1.02445,-0.22766 -0.98651,-0.94858 0.038,-0.45531 0,-0.87266 0,-1.32797 -0.038,-2.80777 -1.25211,-4.05983 -4.02193,-4.13575 -2.16272,-0.0759 -4.28751,0.0384 -6.45025,-0.0375 -0.94856,-0.0375 -1.36593,0.18979 -1.29005,1.25215 0.0759,1.32797 -0.0759,2.65594 0.038,3.98401 0.15178,1.47971 -0.83474,1.32797 -1.66948,1.21409 -0.83473,-0.0759 -2.12479,0.6451 -2.12479,-1.21409 0.0759,-5.0085 0.038,-9.97896 0,-14.98738 0,-1.02447 0.34149,-1.29005 1.29006,-1.29005 4.17369,0.0758 8.34739,0 12.52108,0.11382 2.95952,0.0759 4.85666,1.25211 5.34991,3.07335 0.60708,2.16274 -0.41737,4.55312 -2.69392,6.22256 z"
   inkscape:connector-curvature="0"
   style="fill:#fdfefe;stroke-width:0.37942663"
   inkscape:export-filename="G:\Users\suitedoalex\sites\tnt-energy-drink-logo-4.png"
   inkscape:export-xdpi="53.93354"
   inkscape:export-ydpi="53.93354" />
		<path
   id="XMLID_37_"
   class="st3"
   d="m 390.11944,988.09323 c 0,-2.46629 0,-4.93258 0,-7.39885 0,-0.64502 -0.11382,-1.29005 0.91063,-1.2521 4.0978,0.15177 8.23356,-0.37944 12.29342,0.41737 6.33643,1.21416 8.04385,5.6155 6.67791,11.269 -0.60709,2.54217 -2.46628,4.05983 -4.85666,4.85658 -4.66695,1.51776 -9.52361,0.75888 -14.30438,0.91071 -0.94857,0.0375 -0.68297,-0.75888 -0.68297,-1.25215 -0.038,-2.5042 -0.038,-5.04636 -0.038,-7.55056 z"
   inkscape:connector-curvature="0"
   style="fill:#fdfefe;stroke-width:0.37942663"
   inkscape:export-filename="G:\Users\suitedoalex\sites\tnt-energy-drink-logo-4.png"
   inkscape:export-xdpi="53.93354"
   inkscape:export-ydpi="53.93354" />
		<path
   id="XMLID_36_"
   class="st6"
   d="m 232.27798,992.72224 c 0,-4.24962 0.0759,-8.00593 -0.038,-11.76226 -0.038,-1.32799 0.45531,-1.63154 1.63153,-1.5177 0.98652,0.11382 2.12479,-0.37944 2.08685,1.47976 -0.11383,4.78077 -0.0759,9.59947 -0.038,14.41818 0,1.17623 -0.22765,1.63154 -1.55565,1.6695 -1.74537,0 -2.99747,-0.37939 -4.24958,-1.78328 -3.33895,-3.87013 -6.86761,-7.55066 -10.69982,-11.68636 0,2.01097 0,3.52867 0,5.08428 0,2.16277 -0.0759,4.28758 0.038,6.45025 0.0759,1.40389 -0.22766,1.93511 -1.82124,1.97307 -1.66948,0.0375 -1.78331,-0.68296 -1.78331,-2.01094 0.0759,-4.62901 0.0759,-9.2201 0,-13.84911 0,-1.2521 0.18971,-1.66947 1.59359,-1.74535 2.01096,-0.11384 3.33895,0.56914 4.66695,2.08684 3.18718,3.68045 6.56408,7.20911 10.16864,11.19312 z"
   inkscape:connector-curvature="0"
   style="fill:#fdfdfe;stroke-width:0.37942663"
   inkscape:export-filename="G:\Users\suitedoalex\sites\tnt-energy-drink-logo-4.png"
   inkscape:export-xdpi="53.93354"
   inkscape:export-ydpi="53.93354" />
		<path
   id="XMLID_35_"
   class="st6"
   d="m 489.52922,992.72224 c 0,-4.32553 0.0759,-8.11977 -0.038,-11.91403 -0.038,-1.36593 0.60708,-1.44182 1.59359,-1.328 0.83473,0.11384 2.12479,-0.60708 2.08685,1.25212 -0.0759,5.00842 -0.038,9.97888 0,14.98738 0,1.0244 -0.37943,1.2141 -1.328,1.29001 -1.89712,0.15174 -3.26307,-0.37939 -4.55312,-1.89715 -3.30101,-3.79422 -6.79173,-7.43679 -10.586,-11.53455 0,1.47977 0,2.50422 0,3.52867 0,2.58012 -0.11382,5.1981 0.038,7.77822 0.11384,1.78338 -0.49326,2.27655 -2.20068,2.16277 -1.02444,-0.0759 -1.40387,-0.26561 -1.40387,-1.36593 0.038,-4.93258 0.038,-9.86511 0,-14.79765 0,-1.10035 0.34148,-1.29005 1.36594,-1.40389 2.0489,-0.15177 3.49072,0.41738 4.85666,2.04891 3.14924,3.68045 6.56408,7.20911 10.16863,11.19312 z"
   inkscape:connector-curvature="0"
   style="fill:#fdfdfe;stroke-width:0.37942663"
   inkscape:export-filename="G:\Users\suitedoalex\sites\tnt-energy-drink-logo-4.png"
   inkscape:export-xdpi="53.93354"
   inkscape:export-ydpi="53.93354" />
		<path
   id="XMLID_34_"
   class="st5"
   d="m 249.50394,988.24497 c 0,-2.46627 0.038,-4.93255 -0.0379,-7.39882 -0.038,-1.0624 0.30353,-1.40387 1.40387,-1.40387 4.36341,0.038 8.72682,0.038 13.09023,0 1.06239,0 1.44182,0.26558 1.40388,1.36593 0,1.02445 -0.22767,1.44182 -1.328,1.40389 -3.1113,-0.0759 -6.18466,0.038 -9.29596,-0.038 -1.2521,-0.038 -1.74536,0.34148 -1.55565,1.59358 0.038,0.37944 0.0759,0.75886 0,1.13828 -0.30353,1.59361 0.53121,1.8592 1.93509,1.82126 2.8457,-0.0759 5.6914,0.038 8.5371,-0.038 1.13828,-0.038 1.36593,0.37943 1.36593,1.40393 0,1.0244 -0.22765,1.44184 -1.32799,1.40388 -2.92159,-0.0759 -5.80523,0.0759 -8.72681,-0.0759 -1.47977,-0.0759 -1.82125,0.45531 -1.74537,1.82124 0.15178,3.33899 -0.4553,2.80777 2.95953,2.84573 2.73187,0.0384 5.4258,0.0384 8.15767,0 1.13827,-0.0375 1.328,0.45531 1.36593,1.44184 0,1.06236 -0.30353,1.40389 -1.40387,1.40389 -4.47723,-0.0375 -8.99242,-0.0375 -13.46965,0 -1.02445,0 -1.29004,-0.37949 -1.29004,-1.32806 0,-2.42829 -0.038,-4.89454 -0.038,-7.36087 z"
   inkscape:connector-curvature="0"
   style="fill:#fdfdfd;stroke-width:0.37942663"
   inkscape:export-filename="G:\Users\suitedoalex\sites\tnt-energy-drink-logo-4.png"
   inkscape:export-xdpi="53.93354"
   inkscape:export-ydpi="53.93354" />
		<path
   id="XMLID_33_"
   class="st6"
   d="m 186.67089,988.09323 c 0,-2.39042 0.038,-4.81874 0,-7.20913 -0.038,-0.98651 0.11383,-1.47977 1.29006,-1.44182 4.43929,0.0758 8.84063,0.0758 13.27992,0 1.21416,0 1.29005,0.53119 1.29005,1.47976 0.038,1.02445 -0.34147,1.29006 -1.32799,1.25211 -3.1113,-0.038 -6.18466,0.0379 -9.29595,-0.038 -1.21417,-0.038 -1.78331,0.26559 -1.59359,1.55564 0.0759,0.49325 0.0759,1.02446 0,1.51772 -0.15178,1.17621 0.37942,1.51769 1.5177,1.47976 2.95954,-0.0759 5.957,0.038 8.91652,-0.038 1.10035,-0.038 1.36595,0.37943 1.36595,1.40392 0,1.06236 -0.30355,1.44184 -1.40388,1.40389 -2.92159,-0.0759 -5.80523,0.0375 -8.72682,-0.0384 -1.32799,-0.0384 -1.85919,0.34153 -1.70742,1.70746 0.0759,0.41735 0.0759,0.87266 0,1.32797 -0.18971,1.32797 0.34149,1.74532 1.66949,1.70746 3.03541,-0.11388 6.07081,0 9.10623,-0.0384 1.02445,0 1.63154,0.0384 1.59359,1.36593 -0.038,1.13827 -0.30354,1.51767 -1.47977,1.47971 -4.3634,-0.0759 -8.7268,-0.0759 -13.09021,0 -1.13829,0 -1.55566,-0.26552 -1.51771,-1.47971 0.18971,-2.46625 0.11383,-4.93258 0.11383,-7.39883 z"
   inkscape:connector-curvature="0"
   style="fill:#fdfdfe;stroke-width:0.37942663"
   inkscape:export-filename="G:\Users\suitedoalex\sites\tnt-energy-drink-logo-4.png"
   inkscape:export-xdpi="53.93354"
   inkscape:export-ydpi="53.93354" />
		<path
   id="XMLID_32_"
   class="st5"
   d="m 523.52584,996.93381 c -1.29004,0 -2.50421,-0.0759 -3.68043,0.0384 -0.98652,0.0759 -1.63154,-0.34144 -2.27657,-0.98653 -1.7833,-1.82124 -3.5666,-3.56656 -5.38785,-5.31189 -0.37942,-0.37948 -0.64503,-0.94857 -1.51771,-0.94857 0,1.97297 -0.11383,3.90808 0.038,5.80515 0.11383,1.63154 -0.91062,1.4798 -1.93507,1.44184 -0.94857,-0.0384 -2.01097,0.34153 -1.97302,-1.40389 0.11383,-4.93249 0.0759,-9.86506 0,-14.79761 -0.038,-1.82124 1.17622,-1.21416 2.0489,-1.29005 0.91062,-0.0758 1.93509,-0.2656 1.82125,1.29005 -0.11384,1.63154 -0.038,3.26307 -0.038,5.34992 1.97303,-1.70742 3.79428,-2.99748 5.19815,-4.59106 1.97303,-2.27656 4.36341,-2.23862 7.285,-1.89714 -2.76981,2.3904 -5.2361,4.70489 -7.85414,6.82968 -0.9865,0.79677 -0.7968,1.17625 -0.038,1.93504 2.73187,2.73195 5.42579,5.57759 8.30944,8.5371 z"
   inkscape:connector-curvature="0"
   style="fill:#fdfdfd;stroke-width:0.37942663"
   inkscape:export-filename="G:\Users\suitedoalex\sites\tnt-energy-drink-logo-4.png"
   inkscape:export-xdpi="53.93354"
   inkscape:export-ydpi="53.93354" />
		<path
   id="XMLID_31_"
   class="st3"
   d="m 362.95249,979.70786 c -2.01096,2.656 -3.79426,5.31198 -5.8811,7.7024 -1.82126,2.08685 -2.54216,4.32544 -2.31451,7.0573 0.22766,2.46625 -0.60707,2.95951 -3.07335,2.46625 -0.45531,-0.11379 -0.68298,-0.26552 -0.68298,-0.68297 0,-0.1897 -0.038,-0.37939 0,-0.56909 0.79681,-3.984 -0.9865,-6.98147 -3.56661,-9.78923 -1.70742,-1.89713 -3.18717,-4.02192 -4.8187,-6.10877 3.49072,-0.87268 4.21163,-0.64502 6.22259,2.04891 1.29004,1.70742 2.58009,3.41484 3.90809,5.12226 0.0759,0.0759 0.18972,0.11383 0.41737,0.26565 1.29005,-1.70747 2.73187,-3.30105 3.83221,-5.12231 1.40387,-2.23861 3.11129,-3.26307 5.95699,-2.3904 z"
   inkscape:connector-curvature="0"
   style="fill:#fdfefe;stroke-width:0.37942663"
   inkscape:export-filename="G:\Users\suitedoalex\sites\tnt-energy-drink-logo-4.png"
   inkscape:export-xdpi="53.93354"
   inkscape:export-ydpi="53.93354" />
		<path
   id="XMLID_30_"
   class="st7"
   d="m 455.68436,988.16905 c 0,-2.46624 0.11384,-4.93251 -0.038,-7.39879 -0.11383,-1.63153 0.87268,-1.40387 1.7833,-1.32798 0.83474,0.0758 2.12479,-0.60709 2.08685,1.21416 -0.0758,4.9705 -0.0758,9.97895 0,14.98735 0.0379,1.82124 -1.21417,1.17623 -2.08685,1.25215 -0.94857,0.0759 -1.85919,0.22765 -1.7833,-1.32806 0.15177,-2.46625 0.038,-4.93249 0.038,-7.39883 z"
   inkscape:connector-curvature="0"
   style="fill:#fdfcfb;stroke-width:0.37942663"
   inkscape:export-filename="G:\Users\suitedoalex\sites\tnt-energy-drink-logo-4.png"
   inkscape:export-xdpi="53.93354"
   inkscape:export-ydpi="53.93354" />
		<path
   id="XMLID_29_"
   class="st8"
   d="m 287.29483,987.52404 c -0.75886,0 -1.5177,0 -2.27656,0 -2.46627,0 -2.46627,0 -2.46627,-2.5042 0,-2.84569 0,-2.84569 2.88364,-2.84569 1.82125,0 3.64249,-0.038 5.46375,0.0379 1.93507,0.0758 2.99746,1.10033 2.99746,2.69392 0,1.63153 -1.02445,2.58007 -2.99746,2.61802 -1.21417,0.0384 -2.39039,0 -3.60456,0 z"
   inkscape:connector-curvature="0"
   style="fill:#cb2237;stroke-width:0.37942663"
   inkscape:export-filename="G:\Users\suitedoalex\sites\tnt-energy-drink-logo-4.png"
   inkscape:export-xdpi="53.93354"
   inkscape:export-ydpi="53.93354" />
		<path
   id="XMLID_28_"
   class="st8"
   d="m 431.66665,982.2121 c 1.328,0 2.656,-0.0759 3.98398,0.038 1.82126,0.15178 2.76982,1.17623 2.69394,2.76982 -0.0759,1.55565 -1.0624,2.46622 -2.92158,2.50417 -2.46628,0.0384 -4.93255,-0.0375 -7.36088,0.0384 -0.94857,0.0384 -1.10035,-0.37941 -1.13828,-1.21414 -0.18972,-4.1737 -0.18972,-4.1737 4.74282,-4.13575 z"
   inkscape:connector-curvature="0"
   style="fill:#cb2237;stroke-width:0.37942663"
   inkscape:export-filename="G:\Users\suitedoalex\sites\tnt-energy-drink-logo-4.png"
   inkscape:export-xdpi="53.93354"
   inkscape:export-ydpi="53.93354" />
		<path
   id="XMLID_27_"
   class="st9"
   d="m 393.91371,988.09323 c 0,-0.56919 0,-1.13831 0,-1.70745 0,-4.24957 0,-4.24957 4.32547,-4.21163 1.13827,0 2.27656,0.11382 3.37689,0.30353 3.18719,0.6071 4.81872,2.50423 4.81872,5.57759 0,3.07338 -1.55564,5.08432 -4.66695,5.72933 -2.27656,0.45531 -4.629,0.26561 -6.98145,0.30357 -0.83474,0 -0.87268,-0.49327 -0.87268,-1.10041 0,-1.63145 0,-3.26299 0,-4.89453 z"
   inkscape:connector-curvature="0"
   style="fill:#cb2137;stroke-width:0.37942663"
   inkscape:export-filename="G:\Users\suitedoalex\sites\tnt-energy-drink-logo-4.png"
   inkscape:export-xdpi="53.93354"
   inkscape:export-ydpi="53.93354" />
	<path
   id="XMLID_43_-3"
   class="st3"
   d="m 321.62343,381.69563 v 2.6561 c 0,80.8179 0,161.6356 0.038,242.4535 0,1.8972 0.035,2.3525 0.035,2.3525 -12.52108,-0.1139 -27.42965,-0.076 -39.95073,0 -1.63153,0 -2.23863,-0.015 -2.23863,-0.015 0.038,-103.3177 0.038,-210.8098 0,-314.1276 0,0 0.53121,-0.024 2.12479,0.015 12.7108,0.076 27.3349,0.076 40.0457,0 0,0 0.3253,0.4553 1.16003,1.5937 18.06071,24.7385 36.15937,49.4392 54.29596,74.1399 0.26559,0.3414 0.53119,0.6829 0.91062,1.1383 0.49325,-0.7969 0.30355,-1.5557 0.30355,-2.2387 v -74.5382 c 0,0 -0.30355,-0.019 2.35244,-0.019 12.52108,0 27.27048,0.037 39.79156,-0.038 0,0 -0.10356,0.5312 -0.10356,2.2006 -0.038,103.2799 -0.038,206.5219 -1e-5,309.8019 0,1.7833 -0.0482,2.1628 -0.0482,2.1628 -12.59697,-0.076 -27.30846,-0.076 -39.90543,0 -1.82124,0 -2.12479,-0.03 -2.12479,-0.03 0.038,-56.1552 0.038,-114.519 0.0759,-170.6742 0,-1.973 -0.5312,-3.4527 -1.70742,-5.0084 -18.1366,-23.6382 -36.23524,-47.3524 -54.3339,-71.0286 -0.15176,-0.2277 -0.30354,-0.3416 -0.72091,-0.7969 z"
   inkscape:connector-curvature="0"
   style="fill:#c92237;fill-opacity:1;stroke-width:0.37942663"
   sodipodi:nodetypes="csccccccccccscscccccccccc"
   inkscape:export-filename="G:\Users\suitedoalex\sites\tnt-energy-drink-logo-5.png"
   inkscape:export-xdpi="85.220078"
   inkscape:export-ydpi="85.220078" /><path
   id="XMLID_42_-2"
   class="st4"
   d="m 476.42948,489.87023 c 0,-45.6072 0,-93.5397 0.038,-139.1469 0,0 -0.60708,-0.026 -2.46627,-0.026 -12.59697,0.076 -25.15599,0.038 -37.75294,0.076 -1.36595,0 -1.82126,-0.029 -1.82126,-0.029 0.0759,-10.7377 0.0759,-23.2298 0,-33.9675 0,-1.4039 -0.0174,-1.7833 -0.0174,-1.7833 45.7968,0.037 95.0926,0.066 140.8894,0.028 0,0 0.009,0.1617 -0.52204,1.6035 -4.17369,10.9275 -8.30943,21.8929 -12.36931,32.8583 -0.45531,1.1763 -0.52099,1.2522 -0.52099,1.2522 -13.20405,-0.038 -30.21637,0.038 -43.42042,-0.038 0,0 0.005,0.4173 0.005,2.1248 0.0379,91.2521 0.0379,182.4662 0.0379,273.7183 0,2.7698 0.005,2.5042 0.005,2.5042 -12.40725,0 -27.32295,-0.038 -39.73019,0.076 -2.08685,0 -2.3904,-0.057 -2.3904,-0.057 0.038,-45.5691 0.038,-93.5861 0.038,-139.1932 z"
   inkscape:connector-curvature="0"
   style="fill:#c92237;fill-opacity:1;stroke-width:0.37942663"
   sodipodi:nodetypes="cccccccccccccssccsc"
   inkscape:export-filename="G:\Users\suitedoalex\sites\tnt-energy-drink-logo-5.png"
   inkscape:export-xdpi="85.220078"
   inkscape:export-ydpi="85.220078" /><path
   id="XMLID_41_-6"
   class="st4"
   d="m 124.70101,315.03043 h 2.20068 c 45.45531,0 93.17688,0 138.6322,-0.037 0,0 0.0107,0.5312 -0.0277,2.2766 -0.0758,10.548 -0.0758,21.134 0,31.6821 0,1.5177 -0.0188,1.8212 -0.0188,1.8212 -12.59697,-0.076 -26.99634,0 -39.59331,-0.076 -1.89713,0 -2.35244,0.084 -2.35244,0.084 0.038,80.9317 0.038,164.1695 0.038,245.1011 0,10.3205 -0.0267,22.9242 0.0379,33.2447 0,0 -0.34149,0.031 -2.23862,0.031 -12.52108,-0.076 -25.04216,-0.076 -37.56324,0 -1.7833,0 -2.27655,-0.1006 -2.27655,-0.1006 0.0379,-91.1761 0.0379,-187.0355 0.0379,-278.2118 0,0 0,-0.036 -2.61805,-0.036 -13.01433,0 -27.86737,-0.038 -40.88169,0.037 0,0 -0.0964,-0.3793 -0.58964,-1.6695 -3.98398,-10.7377 -8.04384,-21.4376 -12.06577,-32.1753 -0.26558,-0.607 -0.45531,-1.2142 -0.7209,-1.9731 z"
   inkscape:connector-curvature="0"
   style="fill:#c92237;fill-opacity:1;stroke-width:0.37942663"
   sodipodi:nodetypes="csccccccsscccssccccc"
   inkscape:export-filename="G:\Users\suitedoalex\sites\tnt-energy-drink-logo-5.png"
   inkscape:export-xdpi="85.220078"
   inkscape:export-ydpi="85.220078" /><path
   style="fill:#c92237;fill-opacity:1;stroke-width:0.37942663"
   d="m 274.12008,255.08189 c -0.98651,0 -1.32812,0.26459 -1.32812,1.28906 0.038,5.00843 0.0371,9.97979 0.0371,14.98829 0,0.45531 -0.11459,0.98523 0.56836,1.21289 2.08686,0.68296 3.26367,-0.15093 3.26367,-2.35157 0,-1.02449 0.0379,-2.01075 0,-3.03515 -0.0379,-0.8348 0.30477,-1.1 1.10156,-1.0625 1.44182,0.0375 2.92146,0 4.36328,0 5.4258,0 5.50034,-10e-4 6.10742,5.38672 0.11384,0.98609 0.64628,1.21509 1.36719,1.02539 0.87268,-0.18979 2.20066,0.83527 2.58008,-0.64453 0.79681,-2.92155 -0.34232,-5.65497 -2.80859,-7.40039 2.39037,-1.93503 3.41536,-4.43854 2.46679,-6.52539 -1.02445,-2.42832 -3.3395,-2.69364 -5.57812,-2.76954 -4.05986,-0.11382 -8.08077,-0.0375 -12.14063,-0.11328 z m 8.15625,2.72071 c 0.91063,-2e-5 1.8218,0.0109 2.73243,0.0488 1.93507,0.0758 2.99804,1.09977 2.99804,2.69336 0,1.63153 -1.02503,2.57924 -2.99804,2.61719 -1.21417,0.0384 -2.3913,0 -3.60547,0 h -2.27539 c -2.46627,0 -2.4668,3e-4 -2.4668,-2.50391 0,-2.84569 0.001,-2.8457 2.88476,-2.8457 0.91063,0 1.81985,-0.01 2.73047,-0.01 z"
   id="XMLID_40_-4"
   inkscape:connector-curvature="0"
   inkscape:export-filename="G:\Users\suitedoalex\sites\tnt-energy-drink-logo-5.png"
   inkscape:export-xdpi="85.220078"
   inkscape:export-ydpi="85.220078" /><path
   id="XMLID_39_-7"
   class="st5"
   d="m 322.57201,270.10629 c -3.7184,3.30104 -7.93003,3.18717 -12.17961,2.08685 -4.0978,-1.06236 -5.99494,-4.24962 -5.91905,-8.99241 0.0758,-4.05986 2.35244,-6.94352 6.29848,-7.89208 3.41484,-0.7968 6.90557,-0.72091 10.28246,0.2656 1.82125,0.5312 3.33895,1.47976 4.21164,3.26306 0.37942,0.7968 0.45531,1.40388 -0.7968,1.36595 -1.55565,-0.0759 -2.92159,0 -4.28752,-1.25212 -2.01096,-1.82125 -7.36087,-1.66947 -9.48566,0 -1.97302,1.55565 -2.54216,3.6425 -2.08686,6.07083 0.53121,2.88369 2.42834,4.40136 5.12226,4.81871 2.54216,0.41735 5.08432,0.34153 7.0194,-1.78328 0.49326,-0.53123 1.06239,-1.29002 0.75886,-2.0489 -0.30355,-0.79683 -1.21417,-0.30357 -1.8592,-0.37939 -0.75885,-0.0759 -1.51771,-0.0375 -2.27655,-0.0375 -0.64503,0 -0.91063,-0.30357 -0.91063,-0.91062 0,-0.68296 0.22765,-1.06245 0.98652,-1.02449 2.54215,0.0384 5.04637,0.0384 7.58852,0 0.91063,0 0.98651,0.53122 0.98651,1.25215 0,2.08685 0,4.1737 0,6.26055 0,0.68296 0.15177,1.47971 -0.98651,1.40389 -0.87268,-0.0759 -1.97302,0.37939 -2.12479,-1.10041 -0.038,-0.41735 -0.18971,-0.83471 -0.34147,-1.36593 z"
   inkscape:connector-curvature="0"
   style="fill:#c92237;fill-opacity:1;stroke-width:0.37942663"
   inkscape:export-filename="G:\Users\suitedoalex\sites\tnt-energy-drink-logo-5.png"
   inkscape:export-xdpi="85.220078"
   inkscape:export-ydpi="85.220078" /><path
   style="fill:#c92237;fill-opacity:1;stroke-width:0.37942663"
   d="m 418.52829,255.08189 c -0.94857,0 -1.28907,0.26459 -1.28907,1.28906 0.038,5.00843 0.0759,9.97979 0,14.98829 0,1.85919 1.29027,1.13699 2.125,1.21289 0.83474,0.11388 1.82171,0.26682 1.66993,-1.21289 -0.1139,-1.32807 0.0368,-2.65641 -0.0391,-3.98438 -0.0759,-1.06236 0.34246,-1.28945 1.29102,-1.25195 2.16274,0.0759 4.2865,-0.0388 6.44922,0.0371 2.76982,0.0759 3.98348,1.32895 4.02148,4.13672 0,0.45531 0.038,0.87281 0,1.32812 -0.0379,0.72092 0.26541,1.13705 0.98633,0.94727 0.94857,-0.26552 2.35246,0.7585 2.8457,-0.60742 0.98636,-2.65549 -0.30163,-5.80489 -2.88086,-7.47461 2.27496,-1.66937 3.29829,-4.05869 2.69141,-6.22071 -0.49325,-1.82124 -2.39009,-2.99832 -5.34961,-3.07422 -4.17369,-0.11382 -8.34779,-0.0375 -12.52148,-0.11328 z m 9.24023,2.7461 c 0.664,-0.005 1.3282,0.004 1.99219,0.0605 1.82126,0.15178 2.76924,1.17594 2.69336,2.76953 -0.0759,1.55565 -1.0627,2.46596 -2.92188,2.50391 -2.46628,0.0384 -4.933,-0.0368 -7.36133,0.0391 -0.94857,0.0384 -1.09878,-0.3801 -1.13671,-1.21484 -0.18972,-4.1737 -0.19036,-4.17272 4.74218,-4.13477 0.664,0 1.32819,-0.0187 1.99219,-0.0234 z"
   id="XMLID_38_-6"
   inkscape:connector-curvature="0"
   inkscape:export-filename="G:\Users\suitedoalex\sites\tnt-energy-drink-logo-5.png"
   inkscape:export-xdpi="85.220078"
   inkscape:export-ydpi="85.220078" /><path
   style="fill:#c92237;fill-opacity:1;stroke-width:0.37942663"
   d="m 391.29977,255.04869 c -2.05365,0.0142 -4.11125,0.10909 -6.16015,0.0332 -1.02445,-0.0379 -0.91016,0.60694 -0.91016,1.25196 v 7.39843 c 0,2.5042 -8.9e-4,5.04658 0.0371,7.55078 0,0.49327 -0.26498,1.28946 0.68359,1.25196 4.78077,-0.15183 9.63774,0.6076 14.30469,-0.91016 2.39038,-0.79675 4.24838,-2.31525 4.85547,-4.85742 1.36594,-5.65351 -0.34131,-10.05537 -6.67774,-11.26953 -2.02993,-0.39841 -4.07916,-0.46345 -6.13281,-0.44922 z m -0.37891,2.75976 c 0.41397,-0.005 0.88706,-8.3e-4 1.42774,0.004 1.13827,0 2.27662,0.11498 3.37695,0.30469 3.18719,0.6071 4.81836,2.5028 4.81836,5.57617 0,3.07338 -1.5547,5.08546 -4.66601,5.73047 -2.27656,0.45531 -4.62998,0.26477 -6.98243,0.30273 -0.83474,0 -0.87304,-0.49247 -0.87304,-1.09961 v -4.89453 -1.70703 c 0,-3.71837 7.1e-4,-4.18411 2.89843,-4.2168 z"
   id="XMLID_37_-4"
   inkscape:connector-curvature="0"
   inkscape:export-filename="G:\Users\suitedoalex\sites\tnt-energy-drink-logo-5.png"
   inkscape:export-xdpi="85.220078"
   inkscape:export-ydpi="85.220078" /><path
   id="XMLID_36_-8"
   class="st6"
   d="m 226.38736,268.36097 c 0,-4.24962 0.0759,-8.00594 -0.038,-11.76227 -0.038,-1.32799 0.45531,-1.63154 1.63153,-1.5177 0.98652,0.11382 2.12479,-0.37944 2.08685,1.47976 -0.11383,4.78077 -0.0759,9.59948 -0.038,14.41819 0,1.17623 -0.22765,1.63154 -1.55565,1.6695 -1.74537,0 -2.99747,-0.37939 -4.24958,-1.78328 -3.33895,-3.87013 -6.86761,-7.55066 -10.69982,-11.68637 0,2.01097 0,3.52867 0,5.08429 0,2.16277 -0.0759,4.28758 0.038,6.45025 0.0759,1.40389 -0.22766,1.93511 -1.82124,1.97307 -1.66948,0.0375 -1.78331,-0.68296 -1.78331,-2.01094 0.0759,-4.62901 0.0759,-9.22011 0,-13.84912 0,-1.2521 0.18971,-1.66947 1.59359,-1.74535 2.01096,-0.11384 3.33895,0.56914 4.66695,2.08684 3.18718,3.68045 6.56408,7.20912 10.16864,11.19313 z"
   inkscape:connector-curvature="0"
   style="fill:#c92237;fill-opacity:1;stroke-width:0.37942663"
   inkscape:export-filename="G:\Users\suitedoalex\sites\tnt-energy-drink-logo-5.png"
   inkscape:export-xdpi="85.220078"
   inkscape:export-ydpi="85.220078" /><path
   id="XMLID_35_-5"
   class="st6"
   d="m 483.6386,268.36097 c 0,-4.32553 0.0759,-8.11978 -0.038,-11.91404 -0.038,-1.36593 0.60708,-1.44182 1.59359,-1.328 0.83473,0.11384 2.12479,-0.60708 2.08685,1.25212 -0.0759,5.00842 -0.038,9.97889 0,14.98739 0,1.0244 -0.37943,1.2141 -1.328,1.29001 -1.89712,0.15174 -3.26307,-0.37939 -4.55312,-1.89715 -3.30101,-3.79422 -6.79173,-7.43679 -10.586,-11.53456 0,1.47977 0,2.50422 0,3.52867 0,2.58013 -0.11382,5.19811 0.038,7.77823 0.11384,1.78338 -0.49326,2.27655 -2.20068,2.16277 -1.02444,-0.0759 -1.40387,-0.26561 -1.40387,-1.36593 0.038,-4.93258 0.038,-9.86512 0,-14.79766 0,-1.10035 0.34148,-1.29005 1.36594,-1.40389 2.0489,-0.15177 3.49072,0.41738 4.85666,2.04891 3.14924,3.68045 6.56408,7.20912 10.16863,11.19313 z"
   inkscape:connector-curvature="0"
   style="fill:#c92237;fill-opacity:1;stroke-width:0.37942663"
   inkscape:export-filename="G:\Users\suitedoalex\sites\tnt-energy-drink-logo-5.png"
   inkscape:export-xdpi="85.220078"
   inkscape:export-ydpi="85.220078" /><path
   id="XMLID_34_-7"
   class="st5"
   d="m 243.61332,263.8837 c 0,-2.46628 0.038,-4.93256 -0.0379,-7.39883 -0.038,-1.0624 0.30353,-1.40387 1.40387,-1.40387 4.36341,0.038 8.72682,0.038 13.09023,0 1.06239,0 1.44182,0.26558 1.40388,1.36593 0,1.02445 -0.22767,1.44182 -1.328,1.40389 -3.1113,-0.0759 -6.18466,0.038 -9.29596,-0.038 -1.2521,-0.038 -1.74536,0.34148 -1.55565,1.59358 0.038,0.37944 0.0759,0.75886 0,1.13828 -0.30353,1.59361 0.53121,1.8592 1.93509,1.82126 2.8457,-0.0759 5.6914,0.038 8.5371,-0.038 1.13828,-0.038 1.36593,0.37943 1.36593,1.40394 0,1.0244 -0.22765,1.44184 -1.32799,1.40388 -2.92159,-0.0759 -5.80523,0.0759 -8.72681,-0.0759 -1.47977,-0.0759 -1.82125,0.45531 -1.74537,1.82124 0.15178,3.33899 -0.4553,2.80777 2.95953,2.84573 2.73187,0.0384 5.4258,0.0384 8.15767,0 1.13827,-0.0375 1.328,0.45531 1.36593,1.44184 0,1.06236 -0.30353,1.40389 -1.40387,1.40389 -4.47723,-0.0375 -8.99242,-0.0375 -13.46965,0 -1.02445,0 -1.29004,-0.37949 -1.29004,-1.32806 0,-2.42829 -0.038,-4.89454 -0.038,-7.36087 z"
   inkscape:connector-curvature="0"
   style="fill:#c92237;fill-opacity:1;stroke-width:0.37942663"
   inkscape:export-filename="G:\Users\suitedoalex\sites\tnt-energy-drink-logo-5.png"
   inkscape:export-xdpi="85.220078"
   inkscape:export-ydpi="85.220078" /><path
   id="XMLID_33_-8"
   class="st6"
   d="m 180.78027,263.73196 c 0,-2.39043 0.038,-4.81875 0,-7.20914 -0.038,-0.98651 0.11383,-1.47977 1.29006,-1.44182 4.43929,0.0758 8.84063,0.0758 13.27992,0 1.21416,0 1.29005,0.53119 1.29005,1.47976 0.038,1.02445 -0.34147,1.29006 -1.32799,1.25211 -3.1113,-0.038 -6.18466,0.0379 -9.29595,-0.038 -1.21417,-0.038 -1.78331,0.26559 -1.59359,1.55564 0.0759,0.49325 0.0759,1.02446 0,1.51772 -0.15178,1.17621 0.37942,1.51769 1.5177,1.47976 2.95954,-0.0759 5.957,0.038 8.91652,-0.038 1.10035,-0.038 1.36595,0.37943 1.36595,1.40393 0,1.06236 -0.30355,1.44184 -1.40388,1.40389 -2.92159,-0.0759 -5.80523,0.0375 -8.72682,-0.0384 -1.32799,-0.0384 -1.85919,0.34153 -1.70742,1.70746 0.0759,0.41735 0.0759,0.87266 0,1.32797 -0.18971,1.32797 0.34149,1.74532 1.66949,1.70746 3.03541,-0.11388 6.07081,0 9.10623,-0.0384 1.02445,0 1.63154,0.0384 1.59359,1.36593 -0.038,1.13827 -0.30354,1.51767 -1.47977,1.47971 -4.3634,-0.0759 -8.7268,-0.0759 -13.09021,0 -1.13829,0 -1.55566,-0.26552 -1.51771,-1.47971 0.18971,-2.46625 0.11383,-4.93258 0.11383,-7.39883 z"
   inkscape:connector-curvature="0"
   style="fill:#c92237;fill-opacity:1;stroke-width:0.37942663"
   inkscape:export-filename="G:\Users\suitedoalex\sites\tnt-energy-drink-logo-5.png"
   inkscape:export-xdpi="85.220078"
   inkscape:export-ydpi="85.220078" /><path
   id="XMLID_32_-8"
   class="st5"
   d="m 517.63522,272.57254 c -1.29004,0 -2.50421,-0.0759 -3.68043,0.0384 -0.98652,0.0759 -1.63154,-0.34144 -2.27657,-0.98653 -1.7833,-1.82124 -3.5666,-3.56656 -5.38785,-5.31189 -0.37942,-0.37948 -0.64503,-0.94857 -1.51771,-0.94857 0,1.97297 -0.11383,3.90808 0.038,5.80515 0.11383,1.63154 -0.91062,1.4798 -1.93507,1.44184 -0.94857,-0.0384 -2.01097,0.34153 -1.97302,-1.40389 0.11383,-4.93249 0.0759,-9.86507 0,-14.79762 -0.038,-1.82124 1.17622,-1.21416 2.0489,-1.29005 0.91062,-0.0758 1.93509,-0.2656 1.82125,1.29005 -0.11384,1.63154 -0.038,3.26307 -0.038,5.34992 1.97303,-1.70742 3.79428,-2.99748 5.19815,-4.59106 1.97303,-2.27656 4.36341,-2.23862 7.285,-1.89714 -2.76981,2.3904 -5.2361,4.70489 -7.85414,6.82968 -0.9865,0.79678 -0.7968,1.17626 -0.038,1.93505 2.73187,2.73195 5.42579,5.57759 8.30944,8.5371 z"
   inkscape:connector-curvature="0"
   style="fill:#c92237;fill-opacity:1;stroke-width:0.37942663"
   inkscape:export-filename="G:\Users\suitedoalex\sites\tnt-energy-drink-logo-5.png"
   inkscape:export-xdpi="85.220078"
   inkscape:export-ydpi="85.220078" /><path
   id="XMLID_31_-6"
   class="st3"
   d="m 357.06187,255.34658 c -2.01096,2.656 -3.79426,5.31198 -5.8811,7.70241 -1.82126,2.08685 -2.54216,4.32544 -2.31451,7.0573 0.22766,2.46625 -0.60707,2.95951 -3.07335,2.46625 -0.45531,-0.11379 -0.68298,-0.26552 -0.68298,-0.68297 0,-0.1897 -0.038,-0.37939 0,-0.56909 0.79681,-3.984 -0.9865,-6.98147 -3.56661,-9.78924 -1.70742,-1.89713 -3.18717,-4.02192 -4.8187,-6.10877 3.49072,-0.87268 4.21163,-0.64502 6.22259,2.04891 1.29004,1.70742 2.58009,3.41484 3.90809,5.12226 0.0759,0.0759 0.18972,0.11383 0.41737,0.26566 1.29005,-1.70748 2.73187,-3.30106 3.83221,-5.12232 1.40387,-2.23861 3.11129,-3.26307 5.95699,-2.3904 z"
   inkscape:connector-curvature="0"
   style="fill:#c92237;fill-opacity:1;stroke-width:0.37942663"
   inkscape:export-filename="G:\Users\suitedoalex\sites\tnt-energy-drink-logo-5.png"
   inkscape:export-xdpi="85.220078"
   inkscape:export-ydpi="85.220078" /><path
   id="XMLID_30_-1"
   class="st7"
   d="m 449.79374,263.80778 c 0,-2.46625 0.11384,-4.93252 -0.038,-7.3988 -0.11383,-1.63153 0.87268,-1.40387 1.7833,-1.32798 0.83474,0.0758 2.12479,-0.60709 2.08685,1.21416 -0.0758,4.9705 -0.0758,9.97896 0,14.98736 0.0379,1.82124 -1.21417,1.17623 -2.08685,1.25215 -0.94857,0.0759 -1.85919,0.22765 -1.7833,-1.32806 0.15177,-2.46625 0.038,-4.93249 0.038,-7.39883 z"
   inkscape:connector-curvature="0"
   style="fill:#c92237;fill-opacity:1;stroke-width:0.37942663"
   inkscape:export-filename="G:\Users\suitedoalex\sites\tnt-energy-drink-logo-5.png"
   inkscape:export-xdpi="85.220078"
   inkscape:export-ydpi="85.220078" /></g>
</g>
</svg>